<svg width="120" height="120" viewBox="0 0 120 120" fill="none" xmlns="http://www.w3.org/2000/svg">
<rect width="120" height="120" fill="#A70230"/>
<path d="M22.9998 37.0005L24.4924 83.0006H31.7487L31.5895 63.9249H37.6741V57.9786H31.5895L31.6122 43.0109H39.5561L39.5132 37.0005H22.9998Z" fill="white"/>
<path d="M42.3811 37.0005L43.2991 83.0006H50.7919L50.944 37.0005H42.3811Z" fill="white"/>
<path d="M77.5068 37.0005V42.8026H83.4255L83.2552 83.0006H90.5044L92.0439 42.7959H97.9138L97.8689 37.0005H77.5068Z" fill="white"/>
<path d="M62.2434 58.2901L62.3255 42.6653H66.5089C68.4056 46.1453 69.6243 50.7472 70.5797 58.2901H62.2434ZM55.5589 82.9991H56.2937H61.7016H62.4952L62.5726 63.9777H70.884C71.5373 67.3351 71.6974 77.6987 71.7365 82.9991H72.4236H77.8523H78.4654C79.1001 59.5151 77.128 46.2409 71.6789 37H54.9241L55.5589 82.9991Z" fill="white"/>
</svg>
